STARTFONT 2.1
COMMENT Created by fdbbdf
FONT helvetica8bi
SIZE 8 78 78
FONTBOUNDINGBOX 12 10 -1 -3
STARTPROPERTIES 4
Ownership "  Copyright (c) 1984 Adobe Systems, Inc.  /adobe/fonttools/bitmaps/stdfontvec.ps HM10.bits  TOTAL BITMAP BYTES 969  GUIDELINES -2 0 6 8 DONE  WIDTHERR -83 -134  "
FONT_ASCENT 7
FONT_DESCENT 3
DEFAULT_CHAR 32
ENDPROPERTIES
CHARS 95
STARTCHAR sp
ENCODING -1 32
SWIDTH 0 0
DWIDTH 3 0
BBX 0 0 0 0
BITMAP
ENDCHAR
STARTCHAR !
ENCODING -1 33
SWIDTH 0 0
DWIDTH 4 0
BBX 4 8 1 -1
BITMAP
3000
3000
6000
6000
4000
4000
0000
c000
ENDCHAR
STARTCHAR "
ENCODING -1 34
SWIDTH 0 0
DWIDTH 6 0
BBX 6 3 2 4
BITMAP
6c00
4800
9000
ENDCHAR
STARTCHAR #
ENCODING -1 35
SWIDTH 0 0
DWIDTH 7 0
BBX 7 7 0 -1
BITMAP
1400
1400
7e00
2800
fc00
5000
5000
ENDCHAR
STARTCHAR $
ENCODING -1 36
SWIDTH 0 0
DWIDTH 6 0
BBX 6 9 0 -2
BITMAP
0800
3c00
5400
6000
3000
1800
a800
f000
4000
ENDCHAR
STARTCHAR %
ENCODING -1 37
SWIDTH 0 0
DWIDTH 9 0
BBX 7 7 1 -1
BITMAP
6200
d400
6800
1000
2c00
5a00
8c00
ENDCHAR
STARTCHAR &
ENCODING -1 38
SWIDTH 0 0
DWIDTH 8 0
BBX 7 8 0 -1
BITMAP
1c00
3400
2c00
3800
6a00
ce00
dc00
7600
ENDCHAR
STARTCHAR '
ENCODING -1 39
SWIDTH 0 0
DWIDTH 3 0
BBX 2 3 2 4
BITMAP
c000
4000
8000
ENDCHAR
STARTCHAR (
ENCODING -1 40
SWIDTH 0 0
DWIDTH 5 0
BBX 5 10 0 -3
BITMAP
1800
3000
6000
6000
c000
c000
c000
6000
6000
3000
ENDCHAR
STARTCHAR )
ENCODING -1 41
SWIDTH 0 0
DWIDTH 5 0
BBX 5 10 0 -3
BITMAP
6000
3000
3000
1800
1800
1800
3000
3000
6000
c000
ENDCHAR
STARTCHAR *
ENCODING -1 42
SWIDTH 0 0
DWIDTH 6 0
BBX 4 4 2 3
BITMAP
2000
f000
6000
a000
ENDCHAR
STARTCHAR +
ENCODING -1 43
SWIDTH 0 0
DWIDTH 7 0
BBX 6 5 1 0
BITMAP
3000
3000
fc00
3000
3000
ENDCHAR
STARTCHAR ,
ENCODING -1 44
SWIDTH 0 0
DWIDTH 3 0
BBX 2 4 0 -3
BITMAP
4000
4000
4000
8000
ENDCHAR
STARTCHAR -
ENCODING -1 45
SWIDTH 0 0
DWIDTH 5 0
BBX 4 1 1 2
BITMAP
f000
ENDCHAR
STARTCHAR .
ENCODING -1 46
SWIDTH 0 0
DWIDTH 3 0
BBX 1 2 1 -1
BITMAP
8000
8000
ENDCHAR
STARTCHAR /
ENCODING -1 47
SWIDTH 0 0
DWIDTH 5 0
BBX 6 8 0 -1
BITMAP
0c00
1800
1000
3000
2000
6000
4000
c000
ENDCHAR
STARTCHAR 0
ENCODING -1 48
SWIDTH 0 0
DWIDTH 6 0
BBX 6 7 0 -1
BITMAP
3800
6c00
6c00
cc00
d800
d800
7000
ENDCHAR
STARTCHAR 1
ENCODING -1 49
SWIDTH 0 0
DWIDTH 5 0
BBX 4 7 1 -1
BITMAP
3000
f000
6000
6000
c000
c000
c000
ENDCHAR
STARTCHAR 2
ENCODING -1 50
SWIDTH 0 0
DWIDTH 6 0
BBX 6 7 0 -1
BITMAP
3800
6c00
0c00
1800
3000
6000
f800
ENDCHAR
STARTCHAR 3
ENCODING -1 51
SWIDTH 0 0
DWIDTH 6 0
BBX 6 7 0 -1
BITMAP
3800
6c00
0c00
3800
1800
d800
7000
ENDCHAR
STARTCHAR 4
ENCODING -1 52
SWIDTH 0 0
DWIDTH 6 0
BBX 6 7 0 -1
BITMAP
1c00
2c00
5800
9800
fc00
3000
3000
ENDCHAR
STARTCHAR 5
ENCODING -1 53
SWIDTH 0 0
DWIDTH 6 0
BBX 6 7 0 -1
BITMAP
3c00
6000
7000
1800
1800
d800
7000
ENDCHAR
STARTCHAR 6
ENCODING -1 54
SWIDTH 0 0
DWIDTH 6 0
BBX 6 7 0 -1
BITMAP
3800
6c00
4000
f000
d800
d800
7000
ENDCHAR
STARTCHAR 7
ENCODING -1 55
SWIDTH 0 0
DWIDTH 6 0
BBX 5 7 1 -1
BITMAP
f800
1800
3000
6000
6000
c000
c000
ENDCHAR
STARTCHAR 8
ENCODING -1 56
SWIDTH 0 0
DWIDTH 6 0
BBX 6 7 0 -1
BITMAP
3800
6c00
6c00
7800
d800
d800
7000
ENDCHAR
STARTCHAR 9
ENCODING -1 57
SWIDTH 0 0
DWIDTH 6 0
BBX 6 7 0 -1
BITMAP
3800
6c00
6c00
3c00
0c00
d800
7000
ENDCHAR
STARTCHAR :
ENCODING -1 58
SWIDTH 0 0
DWIDTH 3 0
BBX 2 6 1 -1
BITMAP
4000
4000
0000
0000
8000
8000
ENDCHAR
STARTCHAR ;
ENCODING -1 59
SWIDTH 0 0
DWIDTH 3 0
BBX 3 8 0 -3
BITMAP
2000
2000
0000
0000
4000
4000
4000
8000
ENDCHAR
STARTCHAR <
ENCODING -1 60
SWIDTH 0 0
DWIDTH 6 0
BBX 5 5 1 0
BITMAP
1800
7000
c000
6000
3000
ENDCHAR
STARTCHAR =
ENCODING -1 61
SWIDTH 0 0
DWIDTH 7 0
BBX 5 3 1 1
BITMAP
f800
0000
f800
ENDCHAR
STARTCHAR >
ENCODING -1 62
SWIDTH 0 0
DWIDTH 7 0
BBX 5 5 1 0
BITMAP
6000
3000
1800
7000
c000
ENDCHAR
STARTCHAR ?
ENCODING -1 63
SWIDTH 0 0
DWIDTH 6 0
BBX 6 8 1 -1
BITMAP
3800
6c00
0c00
1800
3000
6000
0000
c000
ENDCHAR
STARTCHAR @
ENCODING -1 64
SWIDTH 0 0
DWIDTH 10 0
BBX 9 9 0 -3
BITMAP
1e00
6100
4e80
9480
a480
ad00
9600
4000
3c00
ENDCHAR
STARTCHAR A
ENCODING -1 65
SWIDTH 0 0
DWIDTH 8 0
BBX 7 8 0 -1
BITMAP
0c00
1c00
3600
3600
6600
7e00
c600
c600
ENDCHAR
STARTCHAR B
ENCODING -1 66
SWIDTH 0 0
DWIDTH 8 0
BBX 7 8 0 -1
BITMAP
3c00
3600
6600
7c00
6600
c600
cc00
f800
ENDCHAR
STARTCHAR C
ENCODING -1 67
SWIDTH 0 0
DWIDTH 7 0
BBX 7 8 0 -1
BITMAP
1c00
3600
6600
6000
c000
c400
cc00
7800
ENDCHAR
STARTCHAR D
ENCODING -1 68
SWIDTH 0 0
DWIDTH 8 0
BBX 8 8 0 -1
BITMAP
3e00
3300
6300
6300
6600
c600
cc00
f800
ENDCHAR
STARTCHAR E
ENCODING -1 69
SWIDTH 0 0
DWIDTH 7 0
BBX 7 8 0 -1
BITMAP
3e00
3000
6000
7c00
6000
c000
c000
f800
ENDCHAR
STARTCHAR F
ENCODING -1 70
SWIDTH 0 0
DWIDTH 6 0
BBX 7 8 0 -1
BITMAP
3e00
3000
6000
7800
6000
c000
c000
c000
ENDCHAR
STARTCHAR G
ENCODING -1 71
SWIDTH 0 0
DWIDTH 8 0
BBX 8 8 0 -1
BITMAP
1e00
3300
6000
6000
cf00
c600
cc00
7c00
ENDCHAR
STARTCHAR H
ENCODING -1 72
SWIDTH 0 0
DWIDTH 8 0
BBX 8 8 0 -1
BITMAP
3300
3300
6600
7e00
6600
cc00
cc00
cc00
ENDCHAR
STARTCHAR I
ENCODING -1 73
SWIDTH 0 0
DWIDTH 4 0
BBX 4 8 0 -1
BITMAP
3000
3000
6000
6000
6000
c000
c000
c000
ENDCHAR
STARTCHAR J
ENCODING -1 74
SWIDTH 0 0
DWIDTH 7 0
BBX 7 8 0 -1
BITMAP
0600
0600
0c00
0c00
0c00
d800
d800
7000
ENDCHAR
STARTCHAR K
ENCODING -1 75
SWIDTH 0 0
DWIDTH 8 0
BBX 8 8 0 -1
BITMAP
3300
3600
6c00
7800
7800
cc00
c600
c600
ENDCHAR
STARTCHAR L
ENCODING -1 76
SWIDTH 0 0
DWIDTH 6 0
BBX 5 8 0 -1
BITMAP
3000
3000
6000
6000
6000
c000
c000
f800
ENDCHAR
STARTCHAR M
ENCODING -1 77
SWIDTH 0 0
DWIDTH 11 0
BBX 11 8 0 -1
BITMAP
3060
30e0
79e0
6b40
6ec0
ccc0
cd80
c980
ENDCHAR
STARTCHAR N
ENCODING -1 78
SWIDTH 0 0
DWIDTH 9 0
BBX 9 8 0 -1
BITMAP
3180
3180
7b00
6b00
6b00
ce00
c600
c600
ENDCHAR
STARTCHAR O
ENCODING -1 79
SWIDTH 0 0
DWIDTH 8 0
BBX 8 8 0 -1
BITMAP
1e00
3300
6300
6300
c600
c600
cc00
7800
ENDCHAR
STARTCHAR P
ENCODING -1 80
SWIDTH 0 0
DWIDTH 8 0
BBX 8 8 0 -1
BITMAP
3e00
3300
6300
6600
7c00
c000
c000
c000
ENDCHAR
STARTCHAR Q
ENCODING -1 81
SWIDTH 0 0
DWIDTH 10 0
BBX 8 8 1 -1
BITMAP
1e00
3300
6300
6300
c600
d600
dc00
7f00
ENDCHAR
STARTCHAR R
ENCODING -1 82
SWIDTH 0 0
DWIDTH 8 0
BBX 8 8 0 -1
BITMAP
3e00
3300
6300
7e00
6c00
cc00
cc00
cc00
ENDCHAR
STARTCHAR S
ENCODING -1 83
SWIDTH 0 0
DWIDTH 8 0
BBX 8 8 0 -1
BITMAP
1e00
3300
3300
3800
1c00
cc00
cc00
7800
ENDCHAR
STARTCHAR T
ENCODING -1 84
SWIDTH 0 0
DWIDTH 6 0
BBX 6 8 1 -1
BITMAP
fc00
3000
3000
6000
6000
c000
c000
c000
ENDCHAR
STARTCHAR U
ENCODING -1 85
SWIDTH 0 0
DWIDTH 8 0
BBX 8 8 0 -1
BITMAP
3300
3300
6600
6600
6600
cc00
cc00
7800
ENDCHAR
STARTCHAR V
ENCODING -1 86
SWIDTH 0 0
DWIDTH 9 0
BBX 7 8 2 -1
BITMAP
c600
c600
cc00
cc00
d800
d800
7000
6000
ENDCHAR
STARTCHAR W
ENCODING -1 87
SWIDTH 0 0
DWIDTH 11 0
BBX 10 8 1 -1
BITMAP
ccc0
ccc0
cd80
dd80
d500
7700
6600
6600
ENDCHAR
STARTCHAR X
ENCODING -1 88
SWIDTH 0 0
DWIDTH 7 0
BBX 7 8 0 -1
BITMAP
6600
6600
6c00
3800
3800
6c00
cc00
cc00
ENDCHAR
STARTCHAR Y
ENCODING -1 89
SWIDTH 0 0
DWIDTH 8 0
BBX 8 8 1 -1
BITMAP
c300
c600
6c00
7800
3000
3000
6000
6000
ENDCHAR
STARTCHAR Z
ENCODING -1 90
SWIDTH 0 0
DWIDTH 8 0
BBX 8 8 0 -1
BITMAP
3f00
0300
0600
0c00
1800
3000
6000
fc00
ENDCHAR
STARTCHAR [
ENCODING -1 91
SWIDTH 0 0
DWIDTH 4 0
BBX 6 10 -1 -3
BITMAP
1c00
1800
3000
3000
3000
6000
6000
6000
c000
e000
ENDCHAR
STARTCHAR \
ENCODING -1 92
SWIDTH 0 0
DWIDTH 5 0
BBX 2 8 2 -1
BITMAP
8000
8000
8000
8000
4000
4000
4000
4000
ENDCHAR
STARTCHAR ]
ENCODING -1 93
SWIDTH 0 0
DWIDTH 4 0
BBX 6 10 -1 -3
BITMAP
1c00
0c00
1800
1800
1800
3000
3000
3000
6000
e000
ENDCHAR
STARTCHAR ^
ENCODING -1 94
SWIDTH 0 0
DWIDTH 6 0
BBX 5 4 1 3
BITMAP
1800
3800
6800
c800
ENDCHAR
STARTCHAR _
ENCODING -1 95
SWIDTH 0 0
DWIDTH 6 0
BBX 6 1 -1 -3
BITMAP
fc00
ENDCHAR
STARTCHAR `
ENCODING -1 96
SWIDTH 0 0
DWIDTH 4 0
BBX 2 3 2 4
BITMAP
4000
8000
c000
ENDCHAR
STARTCHAR a
ENCODING -1 97
SWIDTH 0 0
DWIDTH 7 0
BBX 6 6 0 -1
BITMAP
3800
0c00
7c00
d800
d800
6c00
ENDCHAR
STARTCHAR b
ENCODING -1 98
SWIDTH 0 0
DWIDTH 7 0
BBX 6 8 0 -1
BITMAP
3000
3000
7800
6c00
4c00
cc00
d800
f000
ENDCHAR
STARTCHAR c
ENCODING -1 99
SWIDTH 0 0
DWIDTH 6 0
BBX 5 6 0 -1
BITMAP
3800
6800
c000
c000
d800
7000
ENDCHAR
STARTCHAR d
ENCODING -1 100
SWIDTH 0 0
DWIDTH 7 0
BBX 7 8 0 -1
BITMAP
0600
0600
3c00
6c00
cc00
c800
d800
7800
ENDCHAR
STARTCHAR e
ENCODING -1 101
SWIDTH 0 0
DWIDTH 6 0
BBX 6 6 0 -1
BITMAP
3800
6c00
fc00
c000
d800
7000
ENDCHAR
STARTCHAR f
ENCODING -1 102
SWIDTH 0 0
DWIDTH 5 0
BBX 5 8 0 -1
BITMAP
3800
6000
f800
6000
6000
c000
c000
c000
ENDCHAR
STARTCHAR g
ENCODING -1 103
SWIDTH 0 0
DWIDTH 7 0
BBX 6 8 0 -3
BITMAP
3c00
6c00
cc00
cc00
d800
7800
3000
e000
ENDCHAR
STARTCHAR h
ENCODING -1 104
SWIDTH 0 0
DWIDTH 7 0
BBX 6 8 0 -1
BITMAP
3000
3000
7c00
6c00
6c00
cc00
d800
d800
ENDCHAR
STARTCHAR i
ENCODING -1 105
SWIDTH 0 0
DWIDTH 4 0
BBX 4 8 0 -1
BITMAP
3000
0000
6000
6000
6000
c000
c000
c000
ENDCHAR
STARTCHAR j
ENCODING -1 106
SWIDTH 0 0
DWIDTH 4 0
BBX 5 10 -1 -3
BITMAP
1800
0000
3000
3000
3000
3000
6000
6000
6000
c000
ENDCHAR
STARTCHAR k
ENCODING -1 107
SWIDTH 0 0
DWIDTH 7 0
BBX 6 8 0 -1
BITMAP
3000
3000
6c00
7800
7000
d800
d800
cc00
ENDCHAR
STARTCHAR l
ENCODING -1 108
SWIDTH 0 0
DWIDTH 4 0
BBX 4 8 0 -1
BITMAP
3000
3000
6000
6000
6000
c000
c000
c000
ENDCHAR
STARTCHAR m
ENCODING -1 109
SWIDTH 0 0
DWIDTH 10 0
BBX 9 6 0 -1
BITMAP
5b00
6d80
6d80
db00
db00
db00
ENDCHAR
STARTCHAR n
ENCODING -1 110
SWIDTH 0 0
DWIDTH 7 0
BBX 6 6 0 -1
BITMAP
5800
6c00
6c00
cc00
d800
d800
ENDCHAR
STARTCHAR o
ENCODING -1 111
SWIDTH 0 0
DWIDTH 7 0
BBX 6 6 0 -1
BITMAP
3800
6c00
cc00
cc00
d800
7000
ENDCHAR
STARTCHAR p
ENCODING -1 112
SWIDTH 0 0
DWIDTH 7 0
BBX 7 8 -1 -3
BITMAP
3c00
3600
3600
6600
6c00
f800
c000
c000
ENDCHAR
STARTCHAR q
ENCODING -1 113
SWIDTH 0 0
DWIDTH 7 0
BBX 6 8 0 -3
BITMAP
3c00
6c00
cc00
d800
d800
f000
3000
3000
ENDCHAR
STARTCHAR r
ENCODING -1 114
SWIDTH 0 0
DWIDTH 5 0
BBX 5 6 0 -1
BITMAP
5800
7800
6000
c000
c000
c000
ENDCHAR
STARTCHAR s
ENCODING -1 115
SWIDTH 0 0
DWIDTH 6 0
BBX 6 6 0 -1
BITMAP
3800
6c00
3000
1800
d800
7000
ENDCHAR
STARTCHAR t
ENCODING -1 116
SWIDTH 0 0
DWIDTH 5 0
BBX 5 8 0 -1
BITMAP
3000
3000
f800
6000
6000
c000
c000
e000
ENDCHAR
STARTCHAR u
ENCODING -1 117
SWIDTH 0 0
DWIDTH 7 0
BBX 6 6 0 -1
BITMAP
6c00
6c00
cc00
d800
d800
7800
ENDCHAR
STARTCHAR v
ENCODING -1 118
SWIDTH 0 0
DWIDTH 7 0
BBX 5 6 1 -1
BITMAP
d800
d800
d800
d000
e000
4000
ENDCHAR
STARTCHAR w
ENCODING -1 119
SWIDTH 0 0
DWIDTH 10 0
BBX 8 6 1 -1
BITMAP
db00
db00
db00
db00
ee00
cc00
ENDCHAR
STARTCHAR x
ENCODING -1 120
SWIDTH 0 0
DWIDTH 6 0
BBX 7 6 -1 -1
BITMAP
6600
3c00
1800
3800
6c00
cc00
ENDCHAR
STARTCHAR y
ENCODING -1 121
SWIDTH 0 0
DWIDTH 7 0
BBX 6 8 0 -3
BITMAP
6c00
6c00
6c00
6c00
3800
3000
6000
c000
ENDCHAR
STARTCHAR z
ENCODING -1 122
SWIDTH 0 0
DWIDTH 7 0
BBX 6 6 0 -1
BITMAP
7c00
0c00
1800
3000
6000
f800
ENDCHAR
STARTCHAR {
ENCODING -1 123
SWIDTH 0 0
DWIDTH 5 0
BBX 6 10 0 -3
BITMAP
0c00
1800
3000
3000
c000
6000
6000
6000
6000
3000
ENDCHAR
STARTCHAR |
ENCODING -1 124
SWIDTH 0 0
DWIDTH 4 0
BBX 4 10 0 -3
BITMAP
1000
1000
2000
2000
2000
4000
4000
4000
8000
8000
ENDCHAR
STARTCHAR }
ENCODING -1 125
SWIDTH 0 0
DWIDTH 5 0
BBX 6 10 -1 -3
BITMAP
3000
1800
1800
1800
0c00
3000
3000
3000
6000
c000
ENDCHAR
STARTCHAR ~
ENCODING -1 126
SWIDTH 0 0
DWIDTH 6 0
BBX 5 2 1 2
BITMAP
6800
b000
ENDCHAR
ENDFONT
